<?xml version="1.0" encoding="UTF-8" standalone="no"?>
<svg width="100%" height="100%" viewBox="0 0 1000 1000" version="1.1" xmlns="http://www.w3.org/2000/svg" xmlns:xlink="http://www.w3.org/1999/xlink" style="fill-rule:evenodd;clip-rule:evenodd;stroke-linecap:round;">
<path d="M558.445,273.367C558.445,233.215 525.847,200.616 485.695,200.616L160.356,200.616C120.204,200.616 87.605,233.215 87.605,273.367L87.605,418.867C87.605,459.019 120.204,491.617 160.356,491.617L485.695,491.617C525.847,491.617 558.445,459.019 558.445,418.867L558.445,273.367Z" style="fill:lightgrey;opacity:0.5;stroke:black;stroke-width:1.0px;"/>
<path d="M886.014,530.777C886.014,490.625 853.415,458.027 813.263,458.027L487.924,458.027C447.772,458.027 415.174,490.625 415.174,530.777L415.174,676.278C415.174,716.43 447.772,749.028 487.924,749.028L813.263,749.028C853.415,749.028 886.014,716.43 886.014,676.278L886.014,530.777Z" style="fill:lightgrey;opacity:0.5;stroke:black;stroke-width:1.0px;"/>
</svg>