<?xml version="1.0" encoding="UTF-8" standalone="no"?>
<svg width="100%" height="100%" viewBox="0 0 1000 1000" version="1.1" xmlns="http://www.w3.org/2000/svg" xmlns:xlink="http://www.w3.org/1999/xlink" style="fill-rule:evenodd;clip-rule:evenodd;stroke-linecap:round;">
<path d="M298.544,428.364C258.393,428.364 225.794,460.963 225.794,501.115L225.794,826.454C225.794,866.606 258.393,899.204 298.544,899.204L444.045,899.204C484.197,899.204 516.795,866.606 516.795,826.454L516.795,501.115C516.795,460.963 484.197,428.364 444.045,428.364L298.544,428.364Z" style="fill:lightgrey;opacity:0.5;stroke:black;stroke-width:1.0px;"/>
<path d="M555.955,100.796C515.803,100.796 483.205,133.394 483.205,173.546L483.205,498.885C483.205,539.037 515.803,571.636 555.955,571.636L701.456,571.636C741.607,571.636 774.206,539.037 774.206,498.885L774.206,173.546C774.206,133.394 741.607,100.796 701.456,100.796L555.955,100.796Z" style="fill:lightgrey;opacity:0.5;stroke:black;stroke-width:1.0px;"/>
</svg>