<?xml version="1.0" encoding="UTF-8" standalone="no"?>
<svg width="100%" height="100%" viewBox="0 0 1000 1000" version="1.1" xmlns="http://www.w3.org/2000/svg" xmlns:xlink="http://www.w3.org/1999/xlink" style="fill-rule:evenodd;clip-rule:evenodd;stroke-linecap:round;">
<path d="M804.318,402.418C804.318,298.612 720.041,214.335 616.235,214.335L383.765,214.335C279.959,214.335 195.682,298.612 195.682,402.418C195.682,506.224 279.959,590.501 383.765,590.501L616.235,590.501C720.041,590.501 804.318,506.224 804.318,402.418Z" style="fill:lightgrey;opacity:0.5;stroke:black;stroke-width:1.0px;"/>
<path d="M733.398,331.498C733.398,266.834 680.899,214.335 616.235,214.335L500,214.335L500,356.176L383.765,356.176C319.101,356.176 266.602,408.674 266.602,473.338C266.602,538.002 319.101,590.501 383.765,590.501L500,590.501L500,448.66L616.235,448.66C680.899,448.66 733.398,396.161 733.398,331.498Z" style="fill:lightgrey;opacity:0.5;stroke:black;stroke-width:1.0px;"/>
</svg>