<?xml version="1.0" encoding="UTF-8" standalone="no"?>
<svg width="100%" height="100%" viewBox="0 0 1000 1000" version="1.1" xmlns="http://www.w3.org/2000/svg" xmlns:xlink="http://www.w3.org/1999/xlink" style="fill-rule:evenodd;clip-rule:evenodd;stroke-linecap:round;">
<path d="M140.473,641.618C329,622.034 499.048,574.132 765.925,292.312" style="fill:lightgrey;opacity:50%;stroke:black;stroke-width:1.0px;"/>
<path d="M140.473,641.618C344.406,734.307 455.343,745.325 744.755,769.862" style="fill:lightgrey;opacity:50%;stroke:black;stroke-width:1.0px;"/>
<path d="M140.473,641.618C361.158,651.952 654.988,691.858 810.839,722.512" style="fill:lightgrey;opacity:50%;stroke:black;stroke-width:1.0px;"/>
<path d="M140.473,641.618C232.68,769.862 658.823,788.369 727.902,832.043" style="fill:lightgrey;opacity:50%;stroke:black;stroke-width:1.0px;"/>
<path d="M140.473,641.618C204.458,722.512 658.823,788.369 727.902,832.043" style="fill:lightgrey;opacity:50%;stroke:black;stroke-width:1.0px;"/>
<path d="M140.473,641.618C253.665,475.728 333.558,300.101 477.148,224.588" style="fill:lightgrey;opacity:50%;stroke:black;stroke-width:1.0px;"/>
<path d="M140.473,641.618C193.105,454.725 333.825,150.331 876.287,117.353" style="fill:lightgrey;opacity:50%;stroke:black;stroke-width:1.0px;"/>
<path d="M140.473,641.618C329,622.034 239.643,377.923 477.148,309.839" style="fill:lightgrey;opacity:50%;stroke:black;stroke-width:1.0px;"/>
<path d="M140.473,641.618C364.585,641.618 508.38,583.704 765.925,292.312" style="fill:lightgrey;opacity:50%;stroke:black;stroke-width:1.0px;"/>
<path d="M140.473,641.618C364.585,641.618 508.38,583.704 865.925,292.312" style="fill:lightgrey;opacity:50%;stroke:black;stroke-width:1.0px;"/>
<path d="M140.473,641.618C329,622.034 499.048,574.132 565.925,292.312" style="fill:lightgrey;opacity:50%;stroke:black;stroke-width:1.0px;"/>
</svg>