<?xml version="1.0" encoding="UTF-8" standalone="no"?>
<svg width="100%" height="100%" viewBox="0 0 3840 2160" version="1.1" xmlns="http://www.w3.org/2000/svg" xmlns:xlink="http://www.w3.org/1999/xlink" style="fill-rule:evenodd;clip-rule:evenodd;stroke-linecap:round;">
<path d="M1196.34,617.296C2440.45,617.296 1196.34,1748.46 2361.72,1452.77C3404.78,1188.1 2454.64,1050.3 1892.54,996.679C1802.81,988.119 1662.5,310.33 1602.24,305.886C1579.39,304.201 764.979,356.181 764.979,356.181L1322.13,1452.77L1568.23,1354.74L1448.76,1149.11L1051.11,759.035L1196.34,617.296Z" style="fill:lightgrey;opacity:0.5;stroke:black;stroke-width:2.16px;"/>
<path d="M1546.91,1799.87L2455.06,1678.54L2694.43,1151.56L2455.06,936.493L2574.8,734.07L2494.64,408.834L2184.93,932.407L2158.87,761.29L1877.15,802.544L1764.75,480.844C1764.75,480.844 524.225,867.772 1759.24,1001.89C2328.58,1063.72 2425.11,1111.05 2337.18,1219.28L1920,1338.33L1546.91,1799.87Z" style="fill:lightgrey;opacity:0.5;stroke:black;stroke-width:2.16px;"/>
</svg>