<?xml version="1.0" encoding="UTF-8" standalone="no"?>
<svg width="100%" height="100%" viewBox="0 0 3840 2160" version="1.1" xmlns="http://www.w3.org/2000/svg" xmlns:xlink="http://www.w3.org/1999/xlink" style="fill-rule:evenodd;clip-rule:evenodd;stroke-linecap:round;">
<path d="M1196.34,617.296C2440.45,617.296 1196.34,1748.46 2361.72,1452.77C3404.78,1188.1 2454.64,1050.3 1892.54,996.679C1802.81,988.119 1662.5,310.33 1602.24,305.886C1579.39,304.201 1538.43,558.546 1447.25,547.642C1252.39,524.34 966.378,253.192 1109.68,459.677L764.979,356.181L1336.68,1452.77L1447.25,1139.31L1051.11,759.035L1196.34,617.296Z" style="fill:lightgrey;opacity:0.5;stroke:black;stroke-width:2.16px;"/>
<path d="M2361.72,1452.77L2318.86,1265.39L1914.4,1345.89L1668.77,1204.08L1909.98,1143.46L2133.06,757.073L1891.43,544.549L2009.02,340.872L1925.43,16.501L1621.27,543.317L1593.41,372.485L1312.14,416.714L1196.34,96.22C1196.34,96.22 -47.771,617.296 1196.34,617.296C3321.06,617.296 236.996,1452.77 2361.72,1452.77Z" style="fill:lightgrey;opacity:0.5;stroke:black;stroke-width:2.16px;"/>
</svg>