<?xml version="1.0" encoding="UTF-8" standalone="no"?>
<svg width="100%" height="100%" viewBox="0 0 1000 1000" version="1.1" xmlns="http://www.w3.org/2000/svg" xmlns:xlink="http://www.w3.org/1999/xlink" style="fill-rule:evenodd;clip-rule:evenodd;stroke-linecap:round;">
<path d="M500,170.718C544.709,170.718 701.174,261.052 723.528,299.772C745.883,338.491 745.883,519.16 723.528,557.88C701.174,596.599 544.709,686.934 500,686.934C455.291,686.934 298.826,596.599 276.472,557.88C254.117,519.16 254.117,338.491 276.472,299.772C298.826,261.052 455.291,170.718 500,170.718Z" style="fill:lightgrey;opacity:0.5;stroke:black;stroke-width:1.0px;"/>
<path d="M465.369,767L480.243,759.962C463.931,726.927 455.171,698.007 452.245,672.602C448.861,643.227 453.214,618.735 461.822,598.33C471.847,575.063 488.483,555.296 510.762,538.837C530.212,524.469 553.932,512.656 581.185,503.073C630.729,485.751 693.892,474.96 754.63,457.995C769.264,453.908 783.763,449.477 797.901,444.508C830.913,432.906 862.302,418.509 885.938,396.146C897.827,384.896 907.778,371.645 915.046,355.742L901.17,351.248C894.898,364.831 886.396,376.252 876.267,386.025C854.176,407.339 824.544,420.942 793.502,432.172C779.675,437.174 765.495,441.666 751.168,445.791C690.33,463.306 626.982,474.531 577.362,492.256C548.986,502.334 524.382,514.848 504.099,529.812C480.094,547.522 462.11,568.717 451.203,593.727C441.45,615.636 436.405,642.026 439.192,673.924C441.537,700.759 449.469,731.58 465.369,767ZM494.74,753.102L512.196,744.842C498.686,718.059 490.803,694.596 487.636,673.882C483.911,649.519 486.615,629.186 493.658,612.13C500.134,596.71 510.365,583.389 523.821,571.927C541.705,556.694 565.11,544.72 592.442,534.926C641.996,517.558 705.179,506.708 765.931,489.686C780.562,485.587 795.056,481.145 809.19,476.166C841.754,464.73 872.478,450.429 897.702,430.318C918.74,413.543 935.972,392.74 947.362,366.207L933.778,361.808C923.573,385.693 908.13,404.553 889.296,419.883C865.366,439.36 836.045,453.198 805.007,464.435C791.164,469.431 776.968,473.915 762.625,478.033C701.751,495.51 638.37,506.694 588.718,524.387C559.852,534.447 535.27,547.083 516.19,562.822C500.991,575.36 489.242,589.899 481.632,606.918C473.07,625.763 469.32,648.409 472.337,675.891C474.783,698.171 481.768,723.714 494.74,753.102ZM519.352,741.456L540.467,731.465C520.727,691.628 514.702,661.236 519.852,637.203C525.194,612.271 542.654,594.914 567.187,581.275C630.134,546.279 737.015,534.797 826.881,500.399C849.024,491.923 870.057,481.956 889.516,470.368C911.527,457.261 931.244,441.783 947.953,422.842C959.957,409.234 970.402,393.963 978.778,376.381L958.313,369.753C952.811,385.896 945.358,400.317 935.97,413.158C930.376,420.809 924.163,427.89 917.388,434.436C907.192,444.288 895.863,453.045 883.604,460.726C865.015,472.374 844.376,481.649 822.82,489.572C731.564,523.114 623.192,531.832 558.709,565.558C528.472,581.373 507.53,602.574 500.157,632.683C493.489,659.909 498.22,695.095 519.352,741.456ZM545.595,729.039L567.042,718.89C558.909,702.381 553.34,687.939 550.411,675.148C546.986,660.19 547.177,647.813 551.659,637.272C554.735,630.038 559.801,624.147 566.184,619.003C572.632,613.807 580.343,609.358 588.845,605.206C599.185,600.156 610.62,595.713 622.867,591.633C639.672,586.033 657.97,581.106 677.068,576.259C714.154,566.865 753.985,557.852 792.631,546.248C818.75,538.405 844.33,529.39 868.192,518.309C902.006,502.606 932.474,482.894 957.151,457.323C976.733,437.033 992.709,413.079 1003.8,384.483L989.156,379.741C978.571,405.745 963.645,427.512 945.456,445.896C921.904,469.702 892.889,487.812 860.836,502.197C837.606,512.622 812.732,521.006 787.358,528.268C748.834,539.294 709.163,547.717 672.215,556.568C652.536,561.272 633.681,566.083 616.344,571.593C603.09,575.805 590.715,580.442 579.5,585.727C567.056,591.591 556.092,598.143 547.424,606.06C540.407,612.47 534.873,619.809 531.096,628.359C524.761,642.7 523.507,659.597 527.91,680.136C530.961,694.366 536.828,710.534 545.595,729.039ZM576.287,714.516L597.78,704.346C596.319,701.333 594.955,698.388 593.69,695.508C589.918,686.92 587.013,678.943 585.034,671.472C583.841,666.968 582.865,662.882 582.442,659.143C582.092,656.05 581.997,653.3 583.032,650.871C584.389,647.684 586.999,645.504 590.034,643.5C594.059,640.841 598.796,638.602 603.716,636.203C613.243,631.557 623.791,627.512 635.089,623.805C650.67,618.692 667.635,614.214 685.317,609.737C723.6,600.048 764.684,590.643 804.554,578.597C831.497,570.456 857.89,561.123 882.523,549.7C921.027,531.845 955.511,509.23 983.387,479.921C1005.84,456.316 1024.04,428.395 1036.6,395.105L1021.07,390.076C1009,420.639 991.847,446.239 970.821,467.826C944.156,495.204 911.266,516.102 874.689,532.54C850.731,543.307 825.09,552.019 798.934,559.575C759.217,571.048 718.319,579.843 680.203,588.982C661.953,593.356 644.444,597.755 628.348,602.81C615.98,606.694 604.434,610.984 593.983,615.916C586.633,619.385 579.699,622.716 574.156,626.884C568.806,630.908 564.646,635.726 561.989,641.75C559.834,646.635 558.987,652.013 559.202,658.003C559.407,663.703 560.666,670.1 562.474,677.294C564.233,684.296 566.674,691.698 569.79,699.556C571.696,704.363 573.862,709.345 576.287,714.516ZM649.27,236.125C644.972,267.406 632.923,287.171 617.011,303.729C599.738,321.703 577.581,335.496 554.209,347.677C541.863,354.101 529.131,360.071 516.214,365.7C460.976,389.774 402.635,407.979 357.997,430.992C332.489,444.054 310.809,459.019 293.531,475.931C273.421,495.615 259.219,517.942 252.043,543.232C248.588,555.139 246.665,568.138 246.373,582.313C246.123,594.463 247.178,607.471 249.773,621.504C252.948,638.667 258.602,657.23 267.06,677.631C271.39,688.076 276.399,698.969 282.289,710.343L300.125,698.848C293.379,689.051 287.495,679.583 282.53,670.306C272.71,651.96 266.15,634.8 262.236,618.827C259.07,605.905 257.639,593.77 257.661,582.44C257.685,569.361 259.718,557.373 262.915,546.392C269.836,523.131 283.203,502.657 302.063,484.791C318.739,468.994 339.703,455.294 364.181,443.371C409.174,421.608 467.675,404.969 523.26,382.467C536.72,377.019 550.008,371.235 562.906,364.963C594.177,349.786 623.35,331.651 644.038,306.159C657.053,290.123 667.884,269.831 672.215,243.438L649.27,236.125ZM304.835,695.813L321.281,685.214C303.462,658.496 292.252,634.764 286.534,613.479C280.141,589.676 280.548,569.169 285.602,551.44C291.399,531.59 303.252,514.314 319.999,499.197C334.758,485.874 353.262,474.271 374.53,463.828C421.525,441.097 482.705,423.339 540.797,399.717C554.787,394.028 568.604,388.013 582.005,381.504C612.939,366.519 641.73,348.88 664.418,326.053C682.79,307.569 697.181,285.692 705.565,259.074L692.032,254.76C684.597,279.292 671.566,299.51 654.866,316.655C633.397,338.696 605.955,355.71 576.521,370.322C563.412,376.813 549.897,382.836 536.198,388.51C478.034,412.599 416.694,430.711 369.636,453.777C342.218,466.981 319.329,482.278 302.232,500.056C288.65,514.179 278.686,529.904 273.073,547.631C266.719,567.294 265.536,590.2 271.562,617.161C276.708,640.183 287.22,666.241 304.835,695.813ZM325.282,682.636L345.072,669.882C318.795,630.293 308.547,599.344 311.091,573.893C313.627,548.521 329.048,529.33 351.911,513.047C410.576,471.268 515.517,447.969 600.999,403.79C622.063,392.904 641.856,380.659 659.905,366.979C680.322,351.505 698.196,333.93 712.694,313.248C722.116,299.807 730.119,285.157 736.275,268.861L716.356,262.513C712.663,277.921 707.106,292.033 699.708,304.957C695,313.183 689.614,320.911 683.609,328.17C674.571,339.094 664.287,349.057 652.958,358.055C635.78,371.697 616.3,383.211 595.76,393.482C508.8,436.965 402.07,457.682 341.739,498.371C313.448,517.451 294.994,540.85 291.015,571.592C287.28,600.457 296.711,636.486 325.282,682.636ZM351.979,665.43L371.97,652.547C361.06,635.758 353.288,621.018 348.688,607.813C343.639,593.317 342.451,580.987 345.705,570.01C347.933,562.491 352.268,556.083 357.987,550.273C363.774,544.394 370.895,539.119 378.831,534.053C388.472,527.897 399.26,522.223 410.891,516.82C426.86,509.4 444.378,502.484 462.696,495.559C498.274,482.128 536.606,468.772 573.479,452.971C598.394,442.294 622.646,430.512 644.972,416.867C676.661,397.498 704.588,374.504 726.123,346.31C741.585,326.066 753.787,303.158 761.703,276.965L746.981,272.273C739.348,296.524 727.786,317.68 713.19,336.304C692.576,362.607 665.916,383.838 635.832,401.693C614.064,414.612 590.446,425.686 566.21,435.701C529.396,450.915 491.157,463.666 455.657,476.542C436.744,483.393 418.656,490.258 402.146,497.65C389.527,503.3 377.822,509.276 367.335,515.767C355.681,522.981 345.57,530.715 337.885,539.558C331.681,546.696 327.042,554.59 324.267,563.492C319.612,578.428 320.253,595.34 326.875,615.241C331.777,629.974 340.094,646.546 351.979,665.43ZM245.555,484.085L259.943,486.542C263.03,467.401 270.381,451.109 280.672,436.896C298.675,412.032 325.458,393.435 354.044,376.927C366.777,369.574 379.948,362.66 393.327,356.083C450.142,328.152 510.534,305.974 556.268,279.808C582.432,264.902 604.455,248.26 621.794,229.966C642.315,208.314 656.296,184.29 662.639,157.752C665.876,144.654 667.396,130.421 666.621,114.975L654.298,114.975C655.354,129.431 654.161,142.789 651.377,155.086C645.595,179.753 632.691,202.135 613.649,222.251C597.026,239.813 575.75,255.608 550.604,269.831C504.874,295.586 444.588,317.306 387.775,344.676C374.086,351.271 360.592,358.18 347.546,365.555C317.086,382.776 288.714,402.463 269.374,428.631C257.674,444.462 249.243,462.651 245.555,484.085ZM212.242,478.397L226.356,480.807C231.167,451.056 244.011,426.619 261.899,405.853C282.035,382.475 308.469,363.702 337.05,347.186C349.8,339.837 362.988,332.928 376.384,326.355C433.242,298.456 493.672,276.312 539.444,250.171C566.094,235.197 588.073,218.439 604.092,199.593C616.853,184.58 625.865,168.203 630.366,150.112C633.13,139.28 634.318,127.602 633.598,114.975L619.338,114.975C620.48,126.471 619.782,137.156 617.612,147.093C613.946,163.411 606.214,178.323 594.98,191.971C580.05,210.108 559.112,226.008 533.926,240.45C488.194,266.253 427.9,288.034 371.083,315.463C357.4,322.069 343.911,328.988 330.871,336.373C300.823,353.352 273.088,372.827 251.79,397.057C232.062,419.501 217.827,446.012 212.242,478.397ZM179.341,472.779L201.581,476.576C203.681,456.098 208.886,437.538 217.132,420.673C221.295,412.158 226.167,404.095 231.687,396.461C239.994,384.971 249.608,374.36 260.327,364.644C276.581,349.913 295.27,337.156 315.098,325.569C399.043,276.519 504.198,248.898 561.753,204.369C588.742,183.488 605.634,158.937 607.603,128.002C607.871,123.795 607.853,119.456 607.531,114.975L586.895,114.975C587.384,119.102 587.555,123.111 587.421,127.012C586.542,152.495 572.402,172.649 550.647,190.386C494.826,235.895 391.625,265.974 309.199,315.624C288.889,327.858 269.934,341.366 252.813,356.191C233.447,372.961 216.756,391.662 203.634,413.244C192.826,431.022 184.419,450.59 179.341,472.779ZM154.035,468.458L169.079,471.027C174.414,440.167 185.935,413.478 202.041,390.11C221.045,362.537 246.428,339.611 275.456,319.819C296.493,305.476 319.507,292.853 343.211,281.246C379.199,263.623 416.774,248.362 451.592,233.159C470.139,225.071 487.856,217.022 503.955,208.553C516.263,202.078 527.631,195.338 537.743,188.166C548.963,180.207 558.606,171.831 565.748,162.514C571.53,154.971 575.689,146.774 577.905,137.694C579.657,130.515 580.198,122.976 579.449,114.975L556.606,114.975C557.519,121.158 557.371,126.976 556.096,132.532C554.338,140.193 550.387,146.883 545.007,153.068C539.572,159.316 532.762,165.051 525.121,170.632C515.829,177.419 505.353,183.802 494.013,189.97C478.452,198.435 461.305,206.499 443.356,214.626C408.497,230.389 370.868,246.259 334.862,264.472C310.527,276.781 286.928,290.149 265.384,305.25C234.854,326.649 208.323,351.407 188.521,380.915C171.493,406.289 159.389,435.156 154.035,468.458ZM120.111,462.665L136.091,465.394C142.154,430.235 155.09,399.725 173.219,372.976C194.66,341.34 223.367,314.99 256.488,292.382C278.182,277.574 301.893,264.492 326.316,252.459C363.399,234.187 402.117,218.344 438.034,202.652C455.232,195.14 471.696,187.734 486.654,179.93C498.147,173.933 508.76,167.682 518.181,160.991C524.808,156.285 531.05,151.787 535.774,146.71C540.334,141.809 543.583,136.335 545.14,129.938C546.293,125.204 546.301,120.257 545.333,114.975L521.497,114.975C521.658,115.458 521.809,115.935 521.95,116.409C522.837,119.392 523.414,122.083 522.822,124.655C522.046,128.031 519.859,130.635 517.224,133.142C513.728,136.466 509.458,139.503 505.036,142.729C496.473,148.976 486.8,154.811 476.329,160.446C461.889,168.216 445.974,175.605 429.354,183.119C393.368,199.382 354.575,215.857 317.441,234.721C292.347,247.468 268.004,261.292 245.761,276.865C210.993,301.206 181.017,329.528 158.723,363.277C139.655,392.141 126.158,424.956 120.111,462.665Z" style="fill:lightgrey;opacity:0.5;stroke:black;stroke-width:1.0px;"/>
</svg>