<?xml version="1.0" encoding="UTF-8" standalone="no"?>
<svg width="100%" height="100%" viewBox="0 0 3840 2160" version="1.1" xmlns="http://www.w3.org/2000/svg" xmlns:xlink="http://www.w3.org/1999/xlink" style="fill-rule:evenodd;clip-rule:evenodd;stroke-linecap:round;">
<path d="M1277.79,499.809C2552.74,585.373 724.701,1306.94 2089.13,1077.93C3411.43,855.997 1720.02,1453.7 1720.02,1453.7C1701.51,1509.33 1715.07,1783.69 1681.97,1681.53C1598.34,1423.42 1231.95,1984.73 1381.96,1608.58C1523.88,1252.7 865.607,1999.37 1166.66,1423.42L834.027,1301.53L796.212,958.025L1277.79,1016.53L689.968,293.23L1037.35,169.037C1037.35,169.037 689.594,460.334 1277.79,499.809Z" style="fill:lightgrey;opacity:0.5;stroke:black;stroke-width:2.16px;"/>
<path d="M1969.94,1249.58C1068.17,-936.319 2121.37,2711.57 1380.41,428.805C1191.75,-152.421 1166.66,350.01 1166.66,350.01L1380.41,529.476L1037.35,390.645L689.968,499.809L1037.35,1550.61L1526.09,1772.32L1670.56,1301.53L1791.25,1006.32L1842.21,1249.58L1969.94,1382.72L1791.25,1329.88L1888.58,1470.91L2392.34,1862.28L2527.73,958.025L2392.34,917.237L2392.34,1077.93L2271.69,958.025L2164.46,1423.42C2164.46,1423.42 2237.47,1898.06 1969.94,1249.58Z" style="fill:lightgrey;opacity:0.5;stroke:black;stroke-width:2.16px;"/>
</svg>