<?xml version="1.0" encoding="UTF-8" standalone="no"?>
<svg width="100%" height="100%" viewBox="0 0 1000 1000" version="1.1" xmlns="http://www.w3.org/2000/svg" xmlns:xlink="http://www.w3.org/1999/xlink" style="fill-rule:evenodd;clip-rule:evenodd;stroke-linecap:round;">
<path d="M500,294.047C532.224,294.047 643.259,405.082 643.259,437.306C643.259,469.53 532.224,580.565 500,580.565C467.776,580.565 356.741,469.53 356.741,437.306C356.741,405.082 467.776,294.047 500,294.047ZM357.985,143.348C418.916,122.823 476.447,307.038 464.667,372.767C452.886,438.497 171.08,533.427 121.93,488.223C72.78,443.018 297.054,163.873 357.985,143.348Z" style="fill:lightgrey;opacity:0.5;stroke:black;stroke-width:1.0px;"/>
<path d="M189.397,503.937C211.717,525.901 287.595,556.622 318.909,556.371C350.223,556.12 425.6,524.188 447.564,501.868C469.529,479.549 500.249,403.67 499.998,372.356C499.748,341.043 467.816,265.666 445.496,243.701C423.177,221.736 347.298,191.016 315.984,191.267C284.67,191.518 209.294,223.45 187.329,245.77C165.364,268.089 134.644,343.968 134.895,375.281C135.146,406.595 167.078,481.972 189.397,503.937Z" style="fill:lightgrey;opacity:0.5;stroke:black;stroke-width:1.0px;"/>
</svg>