<?xml version="1.0" encoding="UTF-8" standalone="no"?>
<svg width="100%" height="100%" viewBox="0 0 1000 1000" version="1.1" xmlns="http://www.w3.org/2000/svg" xmlns:xlink="http://www.w3.org/1999/xlink" style="fill-rule:evenodd;clip-rule:evenodd;stroke-linecap:round;">
<path d="M508.388,520.781C492.7,535.786 471.437,545.008 448.038,545.008C399.831,545.008 360.694,505.87 360.694,457.664C360.694,409.457 399.831,370.319 448.038,370.319C483.793,370.319 514.558,391.85 528.067,422.642C538.576,416.101 550.979,412.321 564.257,412.321C602.132,412.321 632.881,443.071 632.881,480.945C632.881,518.819 602.132,549.569 564.257,549.569C541.23,549.569 520.836,538.202 508.388,520.781Z" style="fill:lightgrey;opacity:0.5;stroke:black;stroke-width:1.0px;"/>
<path d="M692.418,542.336C692.418,494.13 653.281,454.992 605.074,454.992L394.926,454.992C346.719,454.992 307.582,494.13 307.582,542.336C307.582,590.543 346.719,629.681 394.926,629.681L605.074,629.681C653.281,629.681 692.418,590.543 692.418,542.336Z" style="fill:lightgrey;opacity:0.5;stroke:black;stroke-width:1.0px;"/>
</svg>